<svg width="198" height="53" viewBox="0 0 198 53" fill="none" xmlns="http://www.w3.org/2000/svg">
<path d="M10.6817 23.6248C11.579 22.9806 11.7842 21.731 11.14 20.8337C10.4958 19.9364 9.24618 19.7313 8.34892 20.3755L10.6817 23.6248ZM33.5153 50.0002L34.0151 51.9368L34.1054 51.9134L34.1932 51.8818L33.5153 50.0002ZM197.706 12L177.935 0.0653257L177.485 23.1549L197.706 12ZM158.706 40.0001L160.642 40.502L160.706 40.2551V40.0001H158.706ZM8.34892 20.3755C3.15562 24.104 0.444916 28.4215 0.0500083 32.8783C-0.343412 37.3183 1.60287 41.4416 4.77817 44.7069C11.0794 51.1867 22.7036 54.8562 34.0151 51.9368L33.0155 48.0637C23.0181 50.644 12.8924 47.3135 7.64583 41.9183C5.04724 39.246 3.77018 36.2132 4.0344 33.2313C4.29713 30.2662 6.12503 26.8962 10.6817 23.6248L8.34892 20.3755ZM34.1932 51.8818C91.5945 31.2017 121.57 32.2042 137.481 36.4329C145.422 38.5434 149.949 41.4721 152.869 43.1548C153.594 43.5724 154.314 43.9692 154.981 44.2363C155.624 44.4939 156.492 44.7478 157.426 44.5672C158.478 44.3639 159.203 43.701 159.678 42.9531C160.115 42.2642 160.408 41.4069 160.642 40.502L156.77 39.4981C156.568 40.2807 156.399 40.6539 156.301 40.8092C156.24 40.9055 156.353 40.7006 156.667 40.6399C156.864 40.6019 156.868 40.683 156.468 40.523C156.093 40.3727 155.592 40.1073 154.866 39.689C151.983 38.0279 147.029 34.8317 138.509 32.5671C121.497 28.0459 90.6273 27.2985 32.8374 48.1186L34.1932 51.8818ZM160.706 40.0001C160.706 30.5459 163.288 24.4647 166.856 20.5262C170.448 16.5628 175.246 14.5399 180.086 13.6135L179.335 9.68479C173.95 10.7154 168.247 13.0344 163.892 17.8404C159.515 22.6714 156.706 29.7872 156.706 40.0001H160.706Z" fill="#FF9393"/>
</svg>
